<?xml version="1.0" encoding="UTF-8" standalone="no"?>
<!-- Created with Inkscape (http://www.inkscape.org/) -->

<svg
   xmlns:dc="http://purl.org/dc/elements/1.1/"
   xmlns:cc="http://creativecommons.org/ns#"
   xmlns:rdf="http://www.w3.org/1999/02/22-rdf-syntax-ns#"
   xmlns:svg="http://www.w3.org/2000/svg"
   xmlns="http://www.w3.org/2000/svg"
   xmlns:sodipodi="http://sodipodi.sourceforge.net/DTD/sodipodi-0.dtd"
   xmlns:inkscape="http://www.inkscape.org/namespaces/inkscape"
   width="70mm"
   height="60mm"
   viewBox="0 0 70 60"
   version="1.1"
   id="svg8"
   inkscape:version="0.92.4 (5da689c313, 2019-01-14)"
   sodipodi:docname="pokebackground.svg">
  <defs
     id="defs2" />
  <sodipodi:namedview
     id="base"
     pagecolor="#ffffff"
     bordercolor="#666666"
     borderopacity="1.0"
     inkscape:pageopacity="0.0"
     inkscape:pageshadow="2"
     inkscape:zoom="3.959798"
     inkscape:cx="143.85819"
     inkscape:cy="105.69612"
     inkscape:document-units="mm"
     inkscape:current-layer="layer1"
     showgrid="false"
     inkscape:window-width="1920"
     inkscape:window-height="1017"
     inkscape:window-x="-8"
     inkscape:window-y="-8"
     inkscape:window-maximized="1" />
  <metadata
     id="metadata5">
    <rdf:RDF>
      <cc:Work
         rdf:about="">
        <dc:format>image/svg+xml</dc:format>
        <dc:type
           rdf:resource="http://purl.org/dc/dcmitype/StillImage" />
        <dc:title></dc:title>
      </cc:Work>
    </rdf:RDF>
  </metadata>
  <g
     inkscape:label="Layer 1"
     inkscape:groupmode="layer"
     id="layer1"
     transform="translate(0,-237)">
    <rect
       style="opacity:1;fill:#008000;fill-opacity:1;stroke:none;stroke-width:0.70100003;stroke-miterlimit:4;stroke-dasharray:none;stroke-opacity:1"
       id="rect817"
       width="70.020088"
       height="59.720234"
       x="0"
       y="237.09077" />
    <path
       style="fill:#00b100;stroke:none;stroke-width:0.26458332px;stroke-linecap:butt;stroke-linejoin:miter;stroke-opacity:1;fill-opacity:1"
       d="m -0.13363476,292.52324 6.21401636,-8.35218 3.6749561,6.48129 6.3476513,-4.94449 c 0,0 5.011303,4.34313 5.278573,4.40995 0.267269,0.0668 12.628485,-4.54358 12.628485,-4.54358 l 1.603618,4.54358 9.354434,-5.7463 3.741771,4.6104 4.944486,-4.87767 4.142679,4.94449 3.140416,-4.81085 4.075862,4.40995 1.737251,-5.21176 3.34087,2.53906 -0.07135,10.83587 H 0 Z"
       id="path827"
       inkscape:connector-curvature="0" />
    <path
       style="fill:#642500;stroke:none;stroke-width:0.26458332px;stroke-linecap:butt;stroke-linejoin:miter;stroke-opacity:1;fill-opacity:1"
       d="m 50.781209,287.24466 0.400904,-25.79151 7.14946,-0.13363 -1.937703,26.32604 -2.739514,-3.54132 z"
       id="path829"
       inkscape:connector-curvature="0" />
    <path
       style="opacity:1;fill:#00a300;fill-opacity:1;stroke:none;stroke-width:0.70100003;stroke-miterlimit:4;stroke-dasharray:none;stroke-opacity:1"
       id="path833"
       sodipodi:type="arc"
       sodipodi:cx="49.678722"
       sodipodi:cy="257.64456"
       sodipodi:rx="5.0447121"
       sodipodi:ry="6.3476515"
       sodipodi:start="0"
       sodipodi:end="6.2822254"
       sodipodi:open="true"
       d="m 54.723434,257.64456 a 5.0447121,6.3476515 0 0 1 -5.043501,6.34765 5.0447121,6.3476515 0 0 1 -5.045922,-6.3446 5.0447121,6.3476515 0 0 1 5.04108,-6.3507 5.0447121,6.3476515 0 0 1 5.048341,6.34156" />
    <path
       style="opacity:1;fill:#00a300;fill-opacity:1;stroke:none;stroke-width:0.70100003;stroke-miterlimit:4;stroke-dasharray:none;stroke-opacity:1"
       id="path835"
       sodipodi:type="arc"
       sodipodi:cx="56.42728"
       sodipodi:cy="257.0098"
       sodipodi:rx="5.8465209"
       sodipodi:ry="6.581512"
       sodipodi:start="0"
       sodipodi:end="6.2822254"
       sodipodi:open="true"
       d="m 62.273801,257.0098 a 5.8465209,6.581512 0 0 1 -5.845118,6.58151 5.8465209,6.581512 0 0 1 -5.847923,-6.57836 5.8465209,6.581512 0 0 1 5.842311,-6.58466 5.8465209,6.581512 0 0 1 5.850728,6.57519" />
    <path
       style="opacity:1;fill:#00a300;fill-opacity:1;stroke:none;stroke-width:0.70100003;stroke-miterlimit:4;stroke-dasharray:none;stroke-opacity:1"
       id="path837"
       sodipodi:type="arc"
       sodipodi:cx="61.772671"
       sodipodi:cy="257.64456"
       sodipodi:rx="5.8465209"
       sodipodi:ry="7.2162771"
       sodipodi:start="0"
       sodipodi:end="6.2822254"
       sodipodi:open="true"
       d="m 67.619192,257.64456 a 5.8465209,7.2162771 0 0 1 -5.845118,7.21628 5.8465209,7.2162771 0 0 1 -5.847923,-7.21281 5.8465209,7.2162771 0 0 1 5.842311,-7.21974 5.8465209,7.2162771 0 0 1 5.850727,7.20934" />
    <path
       style="opacity:1;fill:#00a300;fill-opacity:1;stroke:none;stroke-width:0.70100003;stroke-miterlimit:4;stroke-dasharray:none;stroke-opacity:1"
       id="path839"
       sodipodi:type="arc"
       sodipodi:cx="53.153229"
       sodipodi:cy="249.39261"
       sodipodi:rx="5.6460686"
       sodipodi:ry="5.7128859"
       sodipodi:start="0"
       sodipodi:end="6.2822254"
       sodipodi:open="true"
       d="m 58.799297,249.39261 a 5.6460686,5.7128859 0 0 1 -5.644713,5.71288 5.6460686,5.7128859 0 0 1 -5.647423,-5.71014 5.6460686,5.7128859 0 0 1 5.642003,-5.71563 5.6460686,5.7128859 0 0 1 5.650131,5.7074" />
    <path
       style="opacity:1;fill:#00a300;fill-opacity:1;stroke:none;stroke-width:0.70100003;stroke-miterlimit:4;stroke-dasharray:none;stroke-opacity:1"
       id="path841"
       sodipodi:type="arc"
       sodipodi:cx="59.233608"
       sodipodi:cy="247.25446"
       sodipodi:rx="8.3187637"
       sodipodi:ry="4.6438084"
       sodipodi:start="0"
       sodipodi:end="6.2822254"
       sodipodi:open="true"
       d="m 67.552372,247.25446 a 8.3187637,4.6438084 0 0 1 -8.316767,4.6438 8.3187637,4.6438084 0 0 1 -8.32076,-4.64158 8.3187637,4.6438084 0 0 1 8.312774,-4.64603 8.3187637,4.6438084 0 0 1 8.324749,4.63935" />
    <path
       style="opacity:1;fill:#00a300;fill-opacity:1;stroke:none;stroke-width:0.70100003;stroke-miterlimit:4;stroke-dasharray:none;stroke-opacity:1"
       id="path843"
       sodipodi:type="arc"
       sodipodi:cx="64.445366"
       sodipodi:cy="251.46396"
       sodipodi:rx="4.2429037"
       sodipodi:ry="4.911078"
       sodipodi:start="0"
       sodipodi:end="6.2822254"
       sodipodi:open="true"
       d="m 68.68827,251.46396 a 4.2429037,4.911078 0 0 1 -4.241886,4.91108 4.2429037,4.911078 0 0 1 -4.243921,-4.90872 4.2429037,4.911078 0 0 1 4.239848,-4.91344 4.2429037,4.911078 0 0 1 4.245957,4.90636" />
    <path
       style="opacity:1;fill:#00a300;fill-opacity:1;stroke:none;stroke-width:0.70100003;stroke-miterlimit:4;stroke-dasharray:none;stroke-opacity:1"
       id="path845"
       sodipodi:type="arc"
       sodipodi:cx="60.737"
       sodipodi:cy="262.48883"
       sodipodi:rx="3.8754082"
       sodipodi:ry="5.1115298"
       sodipodi:start="0"
       sodipodi:end="6.2822254"
       sodipodi:open="true"
       d="m 64.612408,262.48883 a 3.8754082,5.1115298 0 0 1 -3.874478,5.11153 3.8754082,5.1115298 0 0 1 -3.876338,-5.10908 3.8754082,5.1115298 0 0 1 3.872617,-5.11398 3.8754082,5.1115298 0 0 1 3.878197,5.10662" />
    <path
       style="fill:#00a3db;stroke:none;stroke-width:0.26458332px;stroke-linecap:butt;stroke-linejoin:miter;stroke-opacity:1;fill-opacity:1"
       d="m 0.06681738,279.62748 4.47676442,-2.13816 0.4009044,-5.54584 3.9422254,-1.20271 0.4009044,-3.54132 2.271791,-1.87089 -0.534539,-3.00678 0.267269,-6.28084 -1.135895,-2.40542 -1.2695304,1.46998 -1.1358953,0.13364 v 2.07133 l -1.0690781,3.47451 c 0,0 -0.4677217,1.5368 -0.334087,2.00452 0.1336347,0.46772 -2.1381561,2.73951 -2.1381561,2.73951 l -2.0045215,0.0668 0.8686259,4.07586 H 0.73499119 l -0.33408691,1.80407 -0.80180856,0.13363 z"
       id="path847"
       inkscape:connector-curvature="0" />
    <path
       style="fill:#ac9393;stroke:#000000;stroke-width:0.26458332px;stroke-linecap:butt;stroke-linejoin:miter;stroke-opacity:1;fill-opacity:1"
       d="m 7.7508163,257.31047 -2.8731475,-2.3386 0.6681737,-1.06908 0.9354434,-2.87315 2.2717911,0.46772 c 0,0 1.870887,-1.13589 2.138156,-1.13589 0.26727,0 2.338608,2.07134 2.338608,2.07134 l 1.336348,2.93996 -0.868626,3.74177 -2.138156,-1.06907 -0.400904,0.20045 0.133634,-2.20498 -1.135895,-2.40542 -1.2695306,1.46998 -1.1358951,0.13364 z"
       id="path849"
       inkscape:connector-curvature="0" />
  </g>
</svg>
