<?xml version="1.0" encoding="UTF-8" standalone="no"?>
<!-- Created with Inkscape (http://www.inkscape.org/) -->

<svg
   xmlns:dc="http://purl.org/dc/elements/1.1/"
   xmlns:cc="http://creativecommons.org/ns#"
   xmlns:rdf="http://www.w3.org/1999/02/22-rdf-syntax-ns#"
   xmlns:svg="http://www.w3.org/2000/svg"
   xmlns="http://www.w3.org/2000/svg"
   xmlns:sodipodi="http://sodipodi.sourceforge.net/DTD/sodipodi-0.dtd"
   xmlns:inkscape="http://www.inkscape.org/namespaces/inkscape"
   width="70mm"
   height="45mm"
   viewBox="0 0 70 45"
   version="1.1"
   id="svg8"
   inkscape:version="0.92.4 (5da689c313, 2019-01-14)"
   sodipodi:docname="pokebackground.svg">
  <defs
     id="defs2" />
  <sodipodi:namedview
     id="base"
     pagecolor="#ffffff"
     bordercolor="#666666"
     borderopacity="1.0"
     inkscape:pageopacity="0.0"
     inkscape:pageshadow="2"
     inkscape:zoom="2.8"
     inkscape:cx="94.284797"
     inkscape:cy="123.44487"
     inkscape:document-units="mm"
     inkscape:current-layer="layer1"
     showgrid="false"
     inkscape:window-width="1920"
     inkscape:window-height="1017"
     inkscape:window-x="-8"
     inkscape:window-y="-8"
     inkscape:window-maximized="1" />
  <metadata
     id="metadata5">
    <rdf:RDF>
      <cc:Work
         rdf:about="">
        <dc:format>image/svg+xml</dc:format>
        <dc:type
           rdf:resource="http://purl.org/dc/dcmitype/StillImage" />
        <dc:title></dc:title>
      </cc:Work>
    </rdf:RDF>
  </metadata>
  <g
     inkscape:label="Layer 1"
     inkscape:groupmode="layer"
     id="layer1"
     transform="translate(0,-252)">
    <rect
       style="opacity:1;fill:#008000;fill-opacity:1;stroke:none;stroke-width:0.60836321;stroke-miterlimit:4;stroke-dasharray:none;stroke-opacity:1"
       id="rect817"
       width="70.020088"
       height="44.979164"
       x="0.18898809"
       y="244.83931" />
    <path
       style="fill:#00b100;fill-opacity:1;stroke:none;stroke-width:0.22961877px;stroke-linecap:butt;stroke-linejoin:miter;stroke-opacity:1"
       d="m 0.05535335,286.58905 6.21401625,-6.29056 3.6749561,4.88147 6.3476513,-3.72402 c 0,0 5.011303,3.2711 5.278573,3.32143 0.267269,0.0503 12.628485,-3.42207 12.628485,-3.42207 l 1.603618,3.42207 9.354434,-4.32791 3.741771,3.47239 4.944486,-3.6737 4.142679,3.72402 3.140416,-3.62336 4.075862,3.32142 1.737251,-3.92531 3.34087,1.91233 -0.07135,8.16118 H 0.18898811 Z"
       id="path827"
       inkscape:connector-curvature="0" />
    <path
       style="fill:#642500;fill-opacity:1;stroke:none;stroke-width:0.22961877px;stroke-linecap:butt;stroke-linejoin:miter;stroke-opacity:1"
       d="m 50.970197,282.61341 0.400904,-19.42524 7.14946,-0.1006 -1.937703,19.82783 -2.739514,-2.6672 z"
       id="path829"
       inkscape:connector-curvature="0" />
    <path
       style="opacity:1;fill:#00a300;fill-opacity:1;stroke:none;stroke-width:0.60836321;stroke-miterlimit:4;stroke-dasharray:none;stroke-opacity:1"
       id="path833"
       sodipodi:type="arc"
       sodipodi:cx="49.86771"
       sodipodi:cy="260.31967"
       sodipodi:rx="5.0447121"
       sodipodi:ry="4.7808261"
       sodipodi:start="0"
       sodipodi:end="6.2822254"
       sodipodi:open="true"
       d="m 54.912422,260.31967 a 5.0447121,4.7808261 0 0 1 -5.043501,4.78083 5.0447121,4.7808261 0 0 1 -5.045922,-4.77853 5.0447121,4.7808261 0 0 1 5.041079,-4.78312 5.0447121,4.7808261 0 0 1 5.048342,4.77623" />
    <path
       style="opacity:1;fill:#00a300;fill-opacity:1;stroke:none;stroke-width:0.60836321;stroke-miterlimit:4;stroke-dasharray:none;stroke-opacity:1"
       id="path835"
       sodipodi:type="arc"
       sodipodi:cx="56.616268"
       sodipodi:cy="259.84158"
       sodipodi:rx="5.8465209"
       sodipodi:ry="4.9569612"
       sodipodi:start="0"
       sodipodi:end="6.2822254"
       sodipodi:open="true"
       d="m 62.462789,259.84158 a 5.8465209,4.9569612 0 0 1 -5.845118,4.95696 5.8465209,4.9569612 0 0 1 -5.847923,-4.95458 5.8465209,4.9569612 0 0 1 5.842311,-4.95934 5.8465209,4.9569612 0 0 1 5.850727,4.95221" />
    <path
       style="opacity:1;fill:#00a300;fill-opacity:1;stroke:none;stroke-width:0.60836321;stroke-miterlimit:4;stroke-dasharray:none;stroke-opacity:1"
       id="path837"
       sodipodi:type="arc"
       sodipodi:cx="61.961658"
       sodipodi:cy="260.31967"
       sodipodi:rx="5.8465209"
       sodipodi:ry="5.4350443"
       sodipodi:start="0"
       sodipodi:end="6.2822254"
       sodipodi:open="true"
       d="m 67.808179,260.31967 a 5.8465209,5.4350443 0 0 1 -5.845117,5.43505 5.8465209,5.4350443 0 0 1 -5.847924,-5.43244 5.8465209,5.4350443 0 0 1 5.842311,-5.43765 5.8465209,5.4350443 0 0 1 5.850728,5.42982" />
    <path
       style="opacity:1;fill:#00a300;fill-opacity:1;stroke:none;stroke-width:0.60836321;stroke-miterlimit:4;stroke-dasharray:none;stroke-opacity:1"
       id="path839"
       sodipodi:type="arc"
       sodipodi:cx="53.342216"
       sodipodi:cy="254.1046"
       sodipodi:rx="5.6460686"
       sodipodi:ry="4.302743"
       sodipodi:start="0"
       sodipodi:end="6.2822254"
       sodipodi:open="true"
       d="m 58.988285,254.1046 a 5.6460686,4.302743 0 0 1 -5.644714,4.30274 5.6460686,4.302743 0 0 1 -5.647422,-4.30068 5.6460686,4.302743 0 0 1 5.642003,-4.3048 5.6460686,4.302743 0 0 1 5.65013,4.29861" />
    <path
       style="opacity:1;fill:#00a300;fill-opacity:1;stroke:none;stroke-width:0.60836321;stroke-miterlimit:4;stroke-dasharray:none;stroke-opacity:1"
       id="path841"
       sodipodi:type="arc"
       sodipodi:cx="59.422596"
       sodipodi:cy="252.49422"
       sodipodi:rx="8.3187637"
       sodipodi:ry="3.4975517"
       sodipodi:start="0"
       sodipodi:end="6.2822254"
       sodipodi:open="true"
       d="m 67.74136,252.49422 a 8.3187637,3.4975517 0 0 1 -8.316768,3.49755 8.3187637,3.4975517 0 0 1 -8.320759,-3.49587 8.3187637,3.4975517 0 0 1 8.312774,-3.49923 8.3187637,3.4975517 0 0 1 8.324749,3.49419" />
    <path
       style="opacity:1;fill:#00a300;fill-opacity:1;stroke:none;stroke-width:0.60836321;stroke-miterlimit:4;stroke-dasharray:none;stroke-opacity:1"
       id="path843"
       sodipodi:type="arc"
       sodipodi:cx="64.634361"
       sodipodi:cy="255.66469"
       sodipodi:rx="4.2429037"
       sodipodi:ry="3.6988499"
       sodipodi:start="0"
       sodipodi:end="6.2822254"
       sodipodi:open="true"
       d="m 68.877265,255.66469 a 4.2429037,3.6988499 0 0 1 -4.241886,3.69885 4.2429037,3.6988499 0 0 1 -4.243921,-3.69708 4.2429037,3.6988499 0 0 1 4.239849,-3.70062 4.2429037,3.6988499 0 0 1 4.245956,3.6953" />
    <path
       style="opacity:1;fill:#00a300;fill-opacity:1;stroke:none;stroke-width:0.60836321;stroke-miterlimit:4;stroke-dasharray:none;stroke-opacity:1"
       id="path845"
       sodipodi:type="arc"
       sodipodi:cx="60.925987"
       sodipodi:cy="263.96823"
       sodipodi:rx="3.8754082"
       sodipodi:ry="3.849823"
       sodipodi:start="0"
       sodipodi:end="6.2822254"
       sodipodi:open="true"
       d="m 64.801395,263.96823 a 3.8754082,3.849823 0 0 1 -3.874478,3.84982 3.8754082,3.849823 0 0 1 -3.876337,-3.84797 3.8754082,3.849823 0 0 1 3.872617,-3.85167 3.8754082,3.849823 0 0 1 3.878197,3.84613" />
    <path
       style="fill:#00a3db;fill-opacity:1;stroke:none;stroke-width:0.22961877px;stroke-linecap:butt;stroke-linejoin:miter;stroke-opacity:1"
       d="m 0.25580549,276.87642 4.47676431,-1.61039 0.4009044,-4.17693 3.9422254,-0.90584 0.4009044,-2.66718 2.271791,-1.4091 -0.534539,-2.26459 0.267269,-4.7305 -1.135895,-1.8117 -1.2695304,1.10715 -1.1358953,0.1006 v 1.56005 l -1.0690781,2.61689 c 0,0 -0.4677217,1.15747 -0.334087,1.50973 0.1336347,0.35227 -2.1381561,2.0633 -2.1381561,2.0633 l -2.0045215,0.0503 0.8686259,3.06979 H 0.9239793 l -0.33408691,1.35876 -0.80180856,0.1006 z"
       id="path847"
       inkscape:connector-curvature="0" />
    <path
       style="fill:#ac9393;fill-opacity:1;stroke:#000000;stroke-width:0.22961877px;stroke-linecap:butt;stroke-linejoin:miter;stroke-opacity:1"
       d="m 7.9398043,260.06804 -2.8731475,-1.76135 0.6681737,-0.80519 0.9354434,-2.16396 2.2717911,0.35228 c 0,0 1.870887,-0.85551 2.138156,-0.85551 0.26727,0 2.338608,1.56005 2.338608,1.56005 l 1.336348,2.21427 -0.868626,2.81817 -2.138156,-0.80518 -0.400904,0.15098 0.133634,-1.66071 -1.135895,-1.8117 -1.2695306,1.10715 -1.1358951,0.1006 z"
       id="path849"
       inkscape:connector-curvature="0" />
  </g>
</svg>
